<svg xmlns="http://www.w3.org/2000/svg" version="1.1" xmlns:xlink="http://www.w3.org/1999/xlink" xmlns:svgjs="http://svgjs.dev/svgjs" width="1500" height="1500" viewBox="0 0 1500 1500"><rect width="1500" height="1500" fill="#000000"></rect><g transform="matrix(0.6666666666666666,0,0,0.6666666666666666,249.3942151414663,587.2802382605644)"><svg viewBox="0 0 396 129" data-background-color="#89939e" preserveAspectRatio="xMidYMid meet" height="488" width="1500" xmlns="http://www.w3.org/2000/svg" xmlns:xlink="http://www.w3.org/1999/xlink"><g id="tight-bounds" transform="matrix(1,0,0,1,0.2398908039793355,0.021053066763982997)"><svg viewBox="0 0 395.52 128.95767547443057" height="128.95767547443057" width="395.52"><g><svg viewBox="0 0 677.2286483712969 220.80762605848747" height="128.95767547443057" width="395.52"><g transform="matrix(1,0,0,1,0,45.9107871468908)"><svg viewBox="0 0 395.52 128.98605176470588" height="128.98605176470588" width="395.52"><g id="textblocktransform"><svg viewBox="0 0 395.52 128.98605176470588" height="128.98605176470588" width="395.52" id="textblock"><g><svg viewBox="0 0 395.52 128.98605176470588" height="128.98605176470588" width="395.52"><g transform="matrix(1,0,0,1,0,0)"><svg width="395.52" viewBox="0.4 -34 112.14 34.65" height="128.98605176470588" data-palette-color="#000000"><g class="wordmark-text-0" data-fill-palette-color="primary" id="text-0"><path d="M11.55 0.5L11.55 0.5Q10.95 0.5 10.33 0.3 9.7 0.1 9.3-0.65 8.9-1.4 8.9-2.95L8.9-2.95Q8.9-4.05 9.08-5.65 9.25-7.25 9.55-9.1L9.55-9.1Q9.95-11.6 10.23-14.38 10.5-17.15 10.5-20.05L10.5-20.05Q10.5-22.4 10.28-24.13 10.05-25.85 9.7-26.8L9.7-26.8Q7.8-26.75 6.1-26.55 4.4-26.35 2.65-25.9L2.65-25.9Q2.2-25.85 1.88-25.78 1.55-25.7 1.25-25.7L1.25-25.7Q0.8-25.7 0.6-25.88 0.4-26.05 0.4-26.75L0.4-26.75Q0.4-27.6 0.65-28.53 0.9-29.45 1.4-30.1L1.4-30.1Q1.9-30.8 2.58-31.13 3.25-31.45 4.05-31.55L4.05-31.55Q5.3-31.7 7.25-31.83 9.2-31.95 11.53-32.05 13.85-32.15 16.1-32.15L16.1-32.15Q19.75-32.15 21.33-32.1 22.9-32.05 23.45-31.95L23.45-31.95Q24.15-31.85 24.43-31.53 24.7-31.2 24.7-30.5L24.7-30.5Q24.7-29.15 23.5-27.8L23.5-27.8Q23-27.2 22.45-26.88 21.9-26.55 21-26.6L21-26.6Q20.2-26.7 18.65-26.75 17.1-26.8 15.2-26.8L15.2-26.8Q15.15-25.05 14.93-22.73 14.7-20.4 14.4-18.05L14.4-18.05Q14.1-15.75 13.9-13.45 13.7-11.15 13.7-9.25L13.7-9.25Q13.7-7.5 14.03-6.18 14.35-4.85 15.35-3.9L15.35-3.9Q16.05-3.2 16.05-2.4L16.05-2.4Q16.05-1.3 14.8-0.4 13.55 0.5 11.55 0.5ZM29.4 0.55L29.4 0.55Q28.6 0.55 28.12 0.28 27.65 0 27.8-0.65L27.8-0.65Q28.35-2.8 28.72-5.03 29.1-7.25 29.1-9.3L29.1-9.3Q29.1-11.95 28.77-13.18 28.45-14.4 27.9-14.88 27.35-15.35 26.55-15.6L26.55-15.6Q26.2-15.75 25.92-16 25.65-16.25 25.65-16.7L25.65-16.7Q25.65-17.4 26.2-18.25 26.75-19.1 27.75-19.73 28.75-20.35 30.05-20.35L30.05-20.35Q31.75-20.35 32.42-19.18 33.1-18 33.1-16.1L33.1-16.1Q34-18.1 35.32-19.28 36.65-20.45 38.65-20.45L38.65-20.45Q40-20.45 40.9-19.85 41.8-19.25 41.8-17.9L41.8-17.9Q41.8-16.55 40.92-15.38 40.05-14.2 39.15-14.2L39.15-14.2Q39-14.2 38.8-14.25 38.6-14.3 38.45-14.5L38.45-14.5Q37.8-15.3 36.85-15.3L36.85-15.3Q35.4-15.3 34.3-13.4 33.2-11.5 33.1-8.15L33.1-8.15Q33.15-6.9 33.17-5.6 33.2-4.3 33.2-3.7L33.2-3.7Q33.2-1.85 32.17-0.65 31.15 0.55 29.4 0.55ZM50.05 0.65L50.05 0.65Q47.05 0.65 45.22-1.23 43.4-3.1 43.4-6.6L43.4-6.6Q43.4-9.1 44.37-11.58 45.34-14.05 47.2-16.05 49.05-18.05 51.65-19.25 54.25-20.45 57.5-20.45L57.5-20.45Q60.5-20.45 62.62-19.43 64.75-18.4 64.75-16.65L64.75-16.65Q64.75-16.2 64.65-15.48 64.55-14.75 64.4-14.3L64.4-14.3Q64.25-13.9 63.97-13.58 63.7-13.25 63.25-13.25L63.25-13.25Q63.05-13.25 62.5-13.4L62.5-13.4Q62.3-12.35 62.2-11.35 62.09-10.35 62.09-9.35L62.09-9.35Q62.09-7.45 62.67-5.98 63.25-4.5 64.94-4.15L64.94-4.15Q65.4-4.05 65.67-3.85 65.94-3.65 65.94-3L65.94-3Q65.94-2.45 65.67-1.6 65.4-0.75 64.62-0.08 63.84 0.6 62.4 0.6L62.4 0.6Q60.45 0.6 59.39-0.83 58.34-2.25 58.34-4.9L58.34-4.9Q57-2.45 54.92-0.9 52.84 0.65 50.05 0.65ZM51.65-4.55L51.65-4.55Q53.65-4.55 55.17-5.8 56.7-7.05 57.55-8.95L57.55-8.95Q58.09-10.15 58.39-11.58 58.7-13 58.8-14.4L58.8-14.4Q57.95-14.8 56.84-15.05 55.75-15.3 54.55-15.3L54.55-15.3Q51.5-15.3 49.52-13.5 47.55-11.7 47.55-9L47.55-9Q47.55-7 48.65-5.78 49.75-4.55 51.65-4.55ZM75.29 0.65L75.29 0.65Q72.29 0.65 70.57-1.35 68.84-3.35 68.84-6.8L68.84-6.8Q68.84-9.35 69.67-11.8 70.49-14.25 71.99-16.2 73.49-18.15 75.49-19.3 77.49-20.45 79.84-20.45L79.84-20.45Q81.34-20.45 82.52-20 83.69-19.55 84.59-18.85L84.59-18.85Q84.54-22.25 84.24-24.95 83.94-27.65 82.79-29.95L82.79-29.95Q82.59-30.35 82.47-30.68 82.34-31 82.34-31.3L82.34-31.3Q82.34-32 82.92-32.6 83.49-33.2 84.34-33.6 85.19-34 85.94-34L85.94-34Q87.29-34 87.97-32.83 88.64-31.65 88.84-29.63 89.04-27.6 89.04-25L89.04-25Q89.04-21.2 88.69-18.15 88.34-15.1 88.04-12.8L88.04-12.8Q87.84-11.3 87.69-10.2 87.54-9.1 87.54-8.4L87.54-8.4Q87.54-4.85 90.59-4.2L90.59-4.2Q91.39-4.05 91.39-3.15L91.39-3.15Q91.39-2.6 91.07-1.75 90.74-0.9 89.89-0.23 89.04 0.45 87.44 0.45L87.44 0.45Q85.29 0.45 84.54-1 83.79-2.45 83.79-5.4L83.79-5.4Q82.39-2.85 80.24-1.1 78.09 0.65 75.29 0.65ZM76.84-4.7L76.84-4.7Q78.24-4.7 79.64-5.6 81.04-6.5 82.14-8.05L82.14-8.05Q82.79-9 83.32-10.23 83.84-11.45 84.29-12.7L84.29-12.7Q81.74-15 78.64-15L78.64-15Q75.94-15 74.34-13.38 72.74-11.75 72.74-9.35L72.74-9.35Q72.74-7.3 73.94-6 75.14-4.7 76.84-4.7ZM102.49 0.65L102.49 0.65Q98.69 0.65 96.57-1.53 94.44-3.7 94.44-7.6L94.44-7.6Q94.44-11.15 95.99-14.05 97.54-16.95 100.17-18.68 102.79-20.4 105.94-20.4L105.94-20.4Q108.94-20.4 110.74-18.93 112.54-17.45 112.54-15L112.54-15Q112.54-13.05 111.34-11.4 110.14-9.75 108.14-8.78 106.14-7.8 103.69-7.8L103.69-7.8Q100.69-7.8 98.79-9.15L98.79-9.15Q98.84-6.85 100.37-5.45 101.89-4.05 104.29-4.05L104.29-4.05Q105.74-4.05 107.27-4.58 108.79-5.1 109.89-6L109.89-6Q110.59-6.6 111.19-6.6L111.19-6.6Q111.69-6.6 112.02-6.28 112.34-5.95 112.34-5.45L112.34-5.45Q112.34-4.35 110.44-2.55L110.44-2.55Q107.09 0.65 102.49 0.65ZM103.24-11.1L103.24-11.1Q105.04-11.1 106.24-11.85 107.44-12.6 107.44-13.75L107.44-13.75Q107.44-14.7 106.64-15.23 105.84-15.75 104.44-15.75L104.44-15.75Q102.59-15.75 101.22-14.78 99.84-13.8 99.24-12.05L99.24-12.05Q99.94-11.6 101.04-11.35 102.14-11.1 103.24-11.1Z" fill="#ffffff" data-fill-palette-color="primary"></path></g></svg></g></svg></g></svg></g></svg></g><g transform="matrix(1,0,0,1,456.4210223128094,0)"><svg viewBox="0 0 220.80762605848747 220.80762605848747" height="220.80762605848747" width="220.80762605848747"><g><svg></svg></g><g id="icon-0"><svg viewBox="0 0 220.80762605848747 220.80762605848747" height="220.80762605848747" width="220.80762605848747"><g><path d="M0 110.404c0-60.974 49.429-110.404 110.404-110.404 60.974 0 110.404 49.429 110.404 110.404 0 60.974-49.429 110.404-110.404 110.404-60.974 0-110.404-49.429-110.404-110.404zM110.404 209.176c54.55 0 98.772-44.222 98.772-98.772 0-54.55-44.222-98.772-98.772-98.772-54.55 0-98.772 44.222-98.772 98.772 0 54.55 44.222 98.772 98.772 98.772z" data-fill-palette-color="accent" fill="#ffffff" stroke="transparent"></path></g><g transform="matrix(1,0,0,1,52.500646371665226,52.09185212132578)"><svg viewBox="0 0 115.80633331515702 116.62392181583591" height="116.62392181583591" width="115.80633331515702"><g><svg xmlns="http://www.w3.org/2000/svg" xmlns:xlink="http://www.w3.org/1999/xlink" version="1.1" x="0" y="0" viewBox="0.11144097469517969 0 31.77566496123292 32" style="enable-background:new 0 0 32 32;" xml:space="preserve" height="116.62392181583591" width="115.80633331515702" class="icon-cg-0" data-fill-palette-color="accent" id="cg-0"><g fill="#000000" data-fill-palette-color="accent"><path d="M27.495 32H4.505C3.124 32 2 30.876 2 29.495V12c0-0.552 0.448-1 1-1s1 0.448 1 1v17.495C4 29.773 4.227 30 4.505 30h22.99C27.773 30 28 29.773 28 29.495V12c0-0.552 0.447-1 1-1s1 0.448 1 1v17.495C30 30.876 28.876 32 27.495 32z" fill="#ffffff" data-fill-palette-color="accent"></path><g fill="#000000" data-fill-palette-color="accent"><path d="M28.656 13c-0.894 0-1.733-0.348-2.364-0.98-1.023-1.021-2.686-1.022-3.709 0-1.262 1.263-3.467 1.263-4.729 0-1.023-1.021-2.687-1.022-3.709 0-1.261 1.261-3.466 1.264-4.729 0-1.022-1.022-2.687-1.022-3.709 0-1.136 1.137-3.042 1.284-4.339 0.334C0.26 11.542-0.177 10 0.307 8.603l2.4-6.925C3.054 0.675 4.002 0 5.064 0h21.871c1.062 0 2.01 0.674 2.357 1.678l2.4 6.925c0.483 1.397 0.047 2.939-1.062 3.752C30.055 12.777 29.372 13 28.656 13zM24.438 9.255c1.184 0 2.367 0.451 3.269 1.352 0.457 0.458 1.223 0.517 1.743 0.135 0.401-0.294 0.55-0.918 0.354-1.483-0.001 0-0.001 0-0.001 0l-2.399-6.924C27.335 2.134 27.146 2 26.936 2H5.064C4.854 2 4.666 2.134 4.596 2.333l-2.4 6.925C2 9.823 2.149 10.447 2.55 10.741c0.52 0.38 1.286 0.321 1.743-0.134 1.802-1.803 4.735-1.804 6.538 0 0.508 0.508 1.393 0.506 1.9 0 1.803-1.803 4.735-1.803 6.538 0 0.508 0.508 1.393 0.507 1.9 0C22.07 9.706 23.254 9.255 24.438 9.255z" fill="#ffffff" data-fill-palette-color="accent"></path></g><path d="M20 32h-8c-0.552 0-1-0.447-1-1V19.505C11 18.124 12.124 17 13.505 17h4.99C19.876 17 21 18.124 21 19.505V31C21 31.553 20.553 32 20 32zM13 30h6V19.505C19 19.227 18.773 19 18.495 19h-4.99C13.227 19 13 19.227 13 19.505V30z" fill="#ffffff" data-fill-palette-color="accent"></path><path d="M8 8C7.896 8 7.789 7.984 7.684 7.949 7.16 7.774 6.876 7.208 7.051 6.684l1-3c0.174-0.523 0.74-0.809 1.265-0.632 0.524 0.175 0.807 0.741 0.632 1.265l-1 3C8.809 7.735 8.419 8 8 8z" fill="#ffffff" data-fill-palette-color="accent"></path><path d="M16 8c-0.552 0-1-0.448-1-1V4c0-0.552 0.448-1 1-1s1 0.448 1 1v3C17 7.552 16.552 8 16 8z" fill="#ffffff" data-fill-palette-color="accent"></path><path d="M24 8c-0.419 0-0.809-0.265-0.948-0.684l-1-3c-0.175-0.524 0.108-1.09 0.632-1.265 0.529-0.177 1.09 0.109 1.265 0.632l1 3c0.175 0.524-0.108 1.09-0.632 1.265C24.211 7.984 24.104 8 24 8z" fill="#ffffff" data-fill-palette-color="accent"></path></g></svg></g></svg></g></svg></g></svg></g></svg></g><defs></defs></svg><rect width="395.52" height="128.95767547443057" fill="none" stroke="none" visibility="hidden"></rect></g></svg></g></svg>